<?xml version="1.0" encoding="UTF-8" standalone="no"?>
<svg
   viewBox="0 0 448 512"
   version="1.1"
   id="svg4"
   sodipodi:docname="check-logo.svg"
   inkscape:version="1.1.2 (b8e25be833, 2022-02-05)"
   inkscape:export-filename="C:\Users\Edmund Hogan\OneDrive\Desktop\###\Desktop\CIW\Taskify\check-logo.png"
   inkscape:export-xdpi="300"
   inkscape:export-ydpi="300"
   xmlns:inkscape="http://www.inkscape.org/namespaces/inkscape"
   xmlns:sodipodi="http://sodipodi.sourceforge.net/DTD/sodipodi-0.dtd"
   xmlns="http://www.w3.org/2000/svg"
   xmlns:svg="http://www.w3.org/2000/svg">
  <defs
     id="defs8" />
  <sodipodi:namedview
     id="namedview6"
     pagecolor="#ffffff"
     bordercolor="#666666"
     borderopacity="1.0"
     inkscape:pageshadow="2"
     inkscape:pageopacity="0.0"
     inkscape:pagecheckerboard="0"
     showgrid="false"
     inkscape:snap-global="false"
     inkscape:zoom="0.55104611"
     inkscape:cx="926.41975"
     inkscape:cy="356.59448"
     inkscape:window-width="1920"
     inkscape:window-height="991"
     inkscape:window-x="-9"
     inkscape:window-y="-9"
     inkscape:window-maximized="1"
     inkscape:current-layer="svg4" />
  <!--! Font Awesome Free 6.1.2 by @fontawesome - https://fontawesome.com License - https://fontawesome.com/license/free (Icons: CC BY 4.0, Fonts: SIL OFL 1.1, Code: MIT License) Copyright 2022 Fonticons, Inc. -->
  <path
     style="fill:#000000;stroke:none;stroke-width:1.06415"
     d="M 200.92553,38.333349 C 163.79832,43.222382 129.10164,53.713113 97.702779,74.77694 73.268779,91.168081 52.234746,112.32236 35.986208,136.84788 21.128515,159.27275 10.011642,184.9284 4.6962002,211.33852 -2.5155575,247.17171 -2.3804151,284.54049 7.704767,319.88204 39.939534,432.8439 158.17109,501.62964 272.22371,475.36849 c 77.8704,-17.93096 143.79254,-80.94367 163.48148,-158.67892 4.65461,-18.3779 6.78286,-36.41527 6.78286,-55.33591 0,-11.92275 -0.5331,-22.52916 -11.70673,-29.65471 -13.77755,-8.78566 -32.37466,-3.29782 -39.17251,11.56413 -6.81481,14.90133 -2.69337,36.82924 -6.46469,53.20761 -9.75294,42.35645 -36.86973,80.88194 -73.54677,104.22944 C 228.21145,453.7811 113.88002,422.04277 70.31043,332.65186 56.752072,304.8328 51.957006,274.92161 54.045933,244.32723 55.475089,223.39961 61.821691,202.306 71.374589,183.67056 82.207658,162.53864 97.48143,144.03516 115.79336,128.98911 152.67474,98.684195 201.81623,85.650449 248.81238,93.480484 271.40007,97.243329 310.62257,123.00007 324.46832,92.153478 333.19222,72.716746 318.54306,59.03068 302.02,52.358449 271.33195,39.966612 233.92488,33.987887 200.92553,38.333349 m 212.83045,44.805699 c -9.46461,2.173003 -15.78988,9.906198 -22.34718,16.463496 -10.99487,10.994826 -21.93647,22.047116 -32.98877,32.984456 -34.75626,34.39766 -69.69556,68.6357 -104.2869,103.22702 -11.33748,11.33747 -22.56002,22.82286 -34.2774,33.77086 -4.43325,4.14275 -9.24749,10.73624 -14.67359,13.43918 -6.37852,3.17756 -19.25797,-14.32455 -23.41135,-18.47793 -16.65717,-16.65719 -49.32557,-64.25245 -76.51999,-39.14698 -9.646536,8.9059 -10.842643,24.03495 -3.76071,34.84886 6.02842,9.20493 16.13148,16.76784 23.88064,24.51701 l 47.88684,47.88684 c 10.39571,10.3957 20.20081,20.61369 36.18118,17.59257 10.15201,-1.91867 17.50956,-10.6277 24.47549,-17.59257 l 39.37363,-39.37363 c 38.49887,-38.4989 77.49902,-76.43485 115.99262,-114.92842 17.06579,-17.06581 39.97697,-34.19015 53.36399,-54.27176 13.41259,-20.12205 -5.83896,-46.229962 -28.8885,-40.939002 z"
     id="path1872"
     inkscape:export-filename="C:\Users\Edmund Hogan\OneDrive\Desktop\###\Desktop\CIW\Taskify\check-logo.png"
     inkscape:export-xdpi="300"
     inkscape:export-ydpi="300" />
  <path
     fill-rule="evenodd"
     clip-rule="evenodd"
     d="m 919.67131,45.771534 c -7.74849,3.520454 -16.46945,10.150063 -19.38341,14.737111 -2.91048,4.587047 -43.35457,93.037775 -89.87337,196.560045 -46.5188,103.52229 -87.77086,190.96481 -91.67124,194.32143 -10.27555,8.83949 -31.80958,7.95065 -42.31169,-1.7428 C 663.8939,438.07514 569.00894,269.30977 570.23238,260.7596 c 0.95157,-6.66098 3.64942,-7.23576 37.62355,-8.00259 24.90112,-0.56118 38.37645,0.55073 42.15483,3.4856 3.05687,2.3702 20.8648,31.37004 39.57549,64.43791 18.71069,33.07136 35.17317,60.12658 36.58135,60.12658 3.19979,0 10.65549,-15.98844 10.65549,-22.84461 0,-4.91818 -35.81454,-70.59348 -55.97175,-102.64356 -15.60154,-24.80352 -23.60796,-27.87782 -72.60851,-27.87782 -41.52742,0 -42.25939,0.13943 -53.40633,10.10126 -20.23042,18.07283 -18.09027,24.74392 40.8547,127.57954 28.56797,49.84371 56.81525,95.58173 62.76517,101.63971 21.9279,22.32874 57.2161,22.40194 78.91744,0.1673 7.77986,-7.97505 35.18711,-65.08658 95.56814,-199.15979 46.56062,-103.38633 87.10231,-190.833034 90.08947,-194.321944 4.64283,-5.420105 11.00752,-6.343788 43.80701,-6.343788 36.44187,0 38.37647,0.362501 38.37647,7.190615 0,3.952668 -37.17742,89.558977 -82.61221,190.237007 -70.14836,155.43294 -84.05938,183.79527 -92.19826,188.00238 -5.58392,2.88956 -19.68318,4.95652 -33.81379,4.95652 -24.04366,0 -24.25977,0.0837 -28.05558,10.97615 -2.10531,6.03706 -3.82719,11.52688 -3.82719,12.1996 0,0.67271 14.17942,1.22344 31.50981,1.22344 36.72775,0 54.15923,-6.71326 65.35149,-25.16254 7.36158,-12.13685 165.53873,-361.658041 169.50543,-374.554757 3.8934,-12.656381 -6.5669,-32.074652 -20.3943,-37.850289 -18.22969,-7.616033 -72.96754,-6.744633 -91.00899,1.45001 z"
     fill="#000000"
     id="path2"
     style="stroke-width:3.4856;fill:#000000"
     inkscape:export-filename="C:\Users\Edmund Hogan\OneDrive\Desktop\###\Desktop\CIW\Taskify\check-logo-2.png"
     inkscape:export-xdpi="300"
     inkscape:export-ydpi="300" />
</svg>
